# xmcd CD database file
#
# Track frame offsets:
#	150
#	16800
#	30175
#	48837
#	68452
#	81489
#	105082
#	121185
#	138712
#	156675
#	178979
#
# Disc length: 2625 seconds
#
# Revision: 2
# Processed by: cddbd v1.5.1PL0 Copyright (c) Steve Scherf et al.
# Submitted via: CdAid (MTCDDB.DLL V2003.12.21)
#
DISCID=860a3f0b
DTITLE=John Mooney - All I Want
DYEAR=2002
DGENRE=Blues
TTITLE0=All I Want
TTITLE1=Baby Please
TTITLE2=Buried Treasure
TTITLE3=She Ain't No Good
TTITLE4=Future Blues
TTITLE5=Feel Like Hollerin'
TTITLE6=Tell Me Who
TTITLE7=Son's Blues
TTITLE8=You Got to Move
TTITLE9=Hey Little Girl
TTITLE10=If You Love Me
EXTD=BPCD 5074 ID3G:   0 YEAR: 2002
EXTT0=
EXTT1=
EXTT2=
EXTT3=
EXTT4=
EXTT5=
EXTT6=
EXTT7=
EXTT8=
EXTT9=
EXTT10=
PLAYORDER=
